# Blender v2.93.0 OBJ File: ''
# www.blender.org
mtllib Heart_mesh.mtl
o Heart_mesh
v 2.198792 -2.761142 -0.000000
v 3.333333 -0.000001 -0.000000
v 5.599182 -0.000002 0.000000
v 3.333333 1.666665 -0.000000
v 4.923584 3.781858 0.000000
v 5.856323 2.344531 0.000000
v 0.000000 -5.000002 -0.000000
v 0.000000 -3.333335 -0.000000
v 0.000000 2.880422 0.000000
v 1.666687 4.536197 0.000000
v 1.666667 3.333332 -0.000000
v -2.127441 -2.975205 -0.000000
v -1.666667 3.333332 -0.000000
v -1.666687 4.643226 0.000000
v -5.447754 -0.000002 0.000000
v -3.333333 -0.000001 -0.000000
v -5.856201 2.273177 0.000000
v -4.852112 3.888889 0.000000
v -3.333333 1.666665 -0.000000
v 5.599182 -0.000002 0.050438
v 3.333313 -0.000002 0.050437
v 2.198792 -2.761143 0.050437
v 5.856323 2.344532 0.050438
v 4.923584 3.781858 0.050438
v 3.333313 1.666666 0.050437
v 0.000000 -3.333337 0.050437
v 0.000000 -5.000004 0.050437
v 1.666687 3.333332 0.050438
v 1.666687 4.536198 0.050438
v 0.000000 2.880422 0.050438
v -2.127441 -2.975207 0.050437
v -1.666687 4.643227 0.050438
v -1.666687 3.333332 0.050438
v -3.333313 -0.000002 0.050437
v -5.447754 -0.000002 0.050438
v -3.333313 1.666666 0.050437
v -4.852112 3.888889 0.050438
v -5.856201 2.273178 0.050438
v 1.666667 -0.000001 -0.000000
v 1.666667 -1.666668 -0.000000
v 1.666667 1.666665 -0.000000
v 3.473511 4.765541 0.000000
v 0.000000 -1.666668 -0.000000
v 0.000000 -0.000001 -0.000000
v 0.000000 1.666665 -0.000000
v -1.666667 -1.666668 -0.000000
v -1.666667 -0.000001 -0.000000
v -1.666667 1.666665 -0.000000
v -3.384216 4.801218 0.000000
v 1.666687 -0.000002 0.050437
v 1.666687 -1.666669 0.050437
v 1.666687 1.666666 0.050437
v 3.473511 4.765543 0.050438
v 0.000000 -1.666669 0.050437
v 0.000000 -0.000002 0.050437
v 0.000000 1.666666 0.050437
v -1.666687 -1.666669 0.050437
v -1.666687 -0.000002 0.050437
v -1.666687 1.666666 0.050437
v -3.384216 4.801222 0.050438
vt 0.370471 0.257769
vt 0.269237 0.504268
vt 0.112374 0.504268
vt 0.269237 0.653059
vt 0.159145 0.841892
vt 0.094573 0.713575
vt 0.500000 0.116187
vt 0.500000 0.206686
vt 0.500000 0.761416
vt 0.384617 0.909235
vt 0.384618 0.801850
vt 0.625326 0.238658
vt 0.615382 0.801850
vt 0.615383 0.918790
vt 0.877142 0.504268
vt 0.730763 0.504268
vt 0.905419 0.707205
vt 0.835907 0.851447
vt 0.730763 0.653059
vt 0.887626 0.504268
vt 0.730762 0.504268
vt 0.629529 0.257769
vt 0.905427 0.713575
vt 0.840855 0.841892
vt 0.730762 0.653059
vt 0.500000 0.206686
vt 0.500000 0.116187
vt 0.615383 0.801850
vt 0.615383 0.909235
vt 0.500000 0.761416
vt 0.374674 0.238658
vt 0.384617 0.918790
vt 0.384617 0.801850
vt 0.269238 0.504268
vt 0.122858 0.504268
vt 0.269238 0.653059
vt 0.164093 0.851447
vt 0.094581 0.707205
vt 0.384618 0.504268
vt 0.384618 0.355477
vt 0.384618 0.653059
vt 0.259532 0.929709
vt 0.500000 0.355477
vt 0.500000 0.504268
vt 0.500000 0.653059
vt 0.615382 0.355477
vt 0.615382 0.504268
vt 0.615382 0.653059
vt 0.734286 0.932894
vt 0.615383 0.504268
vt 0.615383 0.355477
vt 0.615383 0.653059
vt 0.740467 0.929709
vt 0.500000 0.355477
vt 0.500000 0.504268
vt 0.500000 0.653059
vt 0.384617 0.355477
vt 0.384617 0.504268
vt 0.384617 0.653059
vt 0.265714 0.932895
vn 0.0000 0.0000 -1.0000
vn -0.0000 -0.0000 1.0000
usemtl Red
s 1
f 1/1/1 2/2/1 3/3/1
f 4/4/1 5/5/1 6/6/1
f 7/7/1 8/8/1 1/1/1
f 9/9/1 10/10/1 11/11/1
f 12/12/1 8/8/1 7/7/1
f 13/13/1 14/14/1 9/9/1
f 12/12/1 15/15/1 16/16/1
f 17/17/1 18/18/1 19/19/1
f 20/20/2 21/21/2 22/22/2
f 23/23/2 24/24/2 25/25/2
f 22/22/2 26/26/2 27/27/2
f 28/28/2 29/29/2 30/30/2
f 27/27/2 26/26/2 31/31/2
f 30/30/2 32/32/2 33/33/2
f 34/34/2 35/35/2 31/31/2
f 36/36/2 37/37/2 38/38/2
f 4/4/1 6/6/1 3/3/1
f 3/3/1 2/2/1 4/4/1
f 39/39/1 2/2/1 1/1/1
f 1/1/1 40/40/1 39/39/1
f 41/41/1 4/4/1 2/2/1
f 2/2/1 39/39/1 41/41/1
f 11/11/1 5/5/1 4/4/1
f 4/4/1 41/41/1 11/11/1
f 5/5/1 11/11/1 10/10/1
f 10/10/1 42/42/1 5/5/1
f 43/43/1 40/40/1 1/1/1
f 1/1/1 8/8/1 43/43/1
f 44/44/1 39/39/1 40/40/1
f 40/40/1 43/43/1 44/44/1
f 45/45/1 41/41/1 39/39/1
f 39/39/1 44/44/1 45/45/1
f 9/9/1 11/11/1 41/41/1
f 41/41/1 45/45/1 9/9/1
f 46/46/1 43/43/1 8/8/1
f 8/8/1 12/12/1 46/46/1
f 47/47/1 44/44/1 43/43/1
f 43/43/1 46/46/1 47/47/1
f 48/48/1 45/45/1 44/44/1
f 44/44/1 47/47/1 48/48/1
f 13/13/1 9/9/1 45/45/1
f 45/45/1 48/48/1 13/13/1
f 16/16/1 47/47/1 46/46/1
f 46/46/1 12/12/1 16/16/1
f 19/19/1 48/48/1 47/47/1
f 47/47/1 16/16/1 19/19/1
f 18/18/1 13/13/1 48/48/1
f 48/48/1 19/19/1 18/18/1
f 14/14/1 13/13/1 18/18/1
f 18/18/1 49/49/1 14/14/1
f 17/17/1 19/19/1 16/16/1
f 16/16/1 15/15/1 17/17/1
f 23/23/2 25/25/2 21/21/2
f 21/21/2 20/20/2 23/23/2
f 21/21/2 50/50/2 51/51/2
f 51/51/2 22/22/2 21/21/2
f 25/25/2 52/52/2 50/50/2
f 50/50/2 21/21/2 25/25/2
f 24/24/2 28/28/2 52/52/2
f 52/52/2 25/25/2 24/24/2
f 28/28/2 24/24/2 53/53/2
f 53/53/2 29/29/2 28/28/2
f 51/51/2 54/54/2 26/26/2
f 26/26/2 22/22/2 51/51/2
f 50/50/2 55/55/2 54/54/2
f 54/54/2 51/51/2 50/50/2
f 52/52/2 56/56/2 55/55/2
f 55/55/2 50/50/2 52/52/2
f 28/28/2 30/30/2 56/56/2
f 56/56/2 52/52/2 28/28/2
f 54/54/2 57/57/2 31/31/2
f 31/31/2 26/26/2 54/54/2
f 55/55/2 58/58/2 57/57/2
f 57/57/2 54/54/2 55/55/2
f 56/56/2 59/59/2 58/58/2
f 58/58/2 55/55/2 56/56/2
f 30/30/2 33/33/2 59/59/2
f 59/59/2 56/56/2 30/30/2
f 58/58/2 34/34/2 31/31/2
f 31/31/2 57/57/2 58/58/2
f 59/59/2 36/36/2 34/34/2
f 34/34/2 58/58/2 59/59/2
f 33/33/2 37/37/2 36/36/2
f 36/36/2 59/59/2 33/33/2
f 37/37/2 33/33/2 32/32/2
f 32/32/2 60/60/2 37/37/2
f 36/36/2 38/38/2 35/35/2
f 35/35/2 34/34/2 36/36/2
